<svg width="50" height="50" viewBox="0 0 50 50" fill="none" xmlns="http://www.w3.org/2000/svg">
<g clip-path="url(#clip0_189_23)">
<path d="M34.9682 5.15416L37.5411 0.966664C38.1411 -0.0166694 39.4245 -0.320836 40.4057 0.283331C41.387 0.885414 41.6932 2.16666 41.0891 3.14791L38.5161 7.33541C38.1245 7.97708 37.4391 8.32916 36.7391 8.32916C36.3661 8.32916 35.9911 8.22916 35.6516 8.02083C34.6703 7.41875 34.3641 6.13541 34.9682 5.15416ZM11.3057 7.33333C11.6974 7.975 12.3849 8.32916 13.0849 8.32916C13.4557 8.32916 13.8307 8.22916 14.1703 8.02291C15.1516 7.42083 15.4599 6.13958 14.8578 5.15833L12.2891 0.968747C11.687 -0.0125027 10.4036 -0.318753 9.42448 0.281247C8.44323 0.883331 8.13489 2.16458 8.73698 3.14583L11.3057 7.33333ZM6.75156 11.9333L3.00573 10.1396C1.97239 9.6375 0.720309 10.0792 0.228642 11.1187C-0.269274 12.1562 0.170309 13.4 1.20781 13.8958L4.95364 15.6896C5.24323 15.8292 5.54948 15.8958 5.85156 15.8958C6.62864 15.8958 7.37448 15.4604 7.73073 14.7125C8.22864 13.675 7.78906 12.4292 6.75156 11.9333ZM24.7161 8.33541C13.2286 8.525 4.12448 20.975 10.362 32.9667C11.3099 34.7875 12.7161 36.3125 14.2266 37.7021C14.7995 38.2292 15.2432 38.8812 15.6224 39.5812H22.9161V28.7812C20.4974 27.9187 18.7495 25.6271 18.7495 22.9146C18.7495 21.7625 19.6807 20.8312 20.8328 20.8312C21.9849 20.8312 22.9161 21.7625 22.9161 22.9146C22.9161 24.0667 23.8495 24.9979 24.9995 24.9979C26.1495 24.9979 27.0828 24.0646 27.0828 22.9146C27.0828 21.7646 28.0141 20.8312 29.1661 20.8312C30.3182 20.8312 31.2495 21.7625 31.2495 22.9146C31.2495 25.6271 29.5016 27.9187 27.0828 28.7812V39.5812H34.3078C34.7828 38.7667 35.3953 37.9979 36.1974 37.3292C37.5703 36.1833 38.862 34.9062 39.6557 33.3042C43.2745 25.9854 41.8391 18.1812 36.6849 13.1146C33.4745 9.95625 29.2224 8.26666 24.7161 8.33541ZM16.6495 44.3292C16.4828 47.3833 18.7703 50 21.8286 50H28.1224C30.9995 50 33.3307 47.6687 33.3307 44.7917V43.75H16.6266C16.6266 43.9458 16.662 44.1292 16.6495 44.3292ZM49.8182 11.0417C49.3432 9.99375 48.112 9.52083 47.0641 10L43.0391 11.8167C41.9891 12.2896 41.5224 13.5229 41.9974 14.5708C42.3453 15.3417 43.1016 15.7979 43.8974 15.7979C44.1828 15.7979 44.4745 15.7396 44.7516 15.6125L48.7766 13.7958C49.8266 13.3229 50.2932 12.0896 49.8182 11.0417Z" fill="#4F4F4F"/>
</g>
<defs>
<clipPath id="clip0_189_23">
<rect width="50" height="50" fill="white"/>
</clipPath>
</defs>
</svg>
