<svg id="Layer_1" data-name="Layer 1" xmlns="http://www.w3.org/2000/svg" viewBox="0 0 818.35 193.95"><defs><style>.cls-1{fill:#fff;}.cls-2{fill:#0064e1;}.cls-3{fill:#008cff;}</style></defs><title>Logo White</title><path class="cls-1" d="M562.86,512.84v54.64h-17.2V514.81c0-18.64-8.95-27.77-24.54-27.77-17.2,0-28.49,10.93-28.49,31.53v48.91h-17.2V514.81c0-18.64-8.95-27.77-24.54-27.77-17.2,0-28.49,10.93-28.49,31.53v48.91H405.21v-95h16.48v14.16c6.81-9.68,18.45-15.05,32.78-15.05,14.51,0,26.7,5.73,33,17.56,7.16-10.75,20.42-17.56,36.55-17.56C547.1,471.63,562.86,484.89,562.86,512.84Z" transform="translate(-90.82 -403.23)"/><path class="cls-1" d="M689.35,485.78c0,27.23-19.71,43.72-52.31,43.72H606v38H588.13V442.07H637C669.64,442.07,689.35,458.55,689.35,485.78Zm-17.92,0c0-17.91-12-28.12-34.93-28.12H606v56.25H636.5C659.43,513.91,671.43,503.7,671.43,485.78Z" transform="translate(-90.82 -403.23)"/><path class="cls-1" d="M793.44,472.52v95H777V552.43c-7.71,10.75-19.89,16.12-33.86,16.12-27.77,0-48-19.52-48-48.55s20.25-48.37,48-48.37c13.43,0,25.26,5,33.14,15.23V472.52Zm-17,47.48c0-20.24-13.79-33.32-31.89-33.32-18.27,0-32.07,13.08-32.07,33.32s13.8,33.5,32.07,33.5C762.63,553.5,776.42,540.25,776.42,520Z" transform="translate(-90.82 -403.23)"/><path class="cls-1" d="M814,443.14a11.32,11.32,0,0,1,11.65-11.28c6.63,0,11.64,4.83,11.64,10.93a11.24,11.24,0,0,1-11.64,11.46C819.06,454.25,814,449.41,814,443.14Zm3.05,29.38h17.2v95h-17.2Z" transform="translate(-90.82 -403.23)"/><path class="cls-1" d="M909.18,471.63v16.66a30.36,30.36,0,0,0-3.95-.18c-18.45,0-29.92,11.29-29.92,32.07v47.3H858.12v-95H874.6v16C880.69,477.36,892.51,471.63,909.18,471.63Z" transform="translate(-90.82 -403.23)"/><path class="cls-2" d="M90.82,597.18h0a46.93,46.93,0,0,0,46.94-46.93V450.16H90.82Z" transform="translate(-90.82 -403.23)"/><path class="cls-2" d="M184.7,597.18h0a46.93,46.93,0,0,0,46.93-46.93V450.16H184.7Z" transform="translate(-90.82 -403.23)"/><polygon class="cls-3" points="46.94 0 46.94 46.94 93.87 46.94 140.81 46.94 93.87 0 46.94 0"/><path class="cls-2" d="M278.57,450.16v147h0a46.93,46.93,0,0,0,46.93-46.93V450.16Z" transform="translate(-90.82 -403.23)"/><polygon class="cls-3" points="187.74 0 140.81 0 140.81 46.94 187.74 46.94 234.68 46.94 187.74 0"/></svg>