<svg width="50" height="50" viewBox="0 0 50 50" fill="none" xmlns="http://www.w3.org/2000/svg">
<path d="M29.448 7.97084C30.321 4.17709 33.3355 1.15834 37.1314 0.283339C40.3085 -0.445828 43.5626 0.272922 46.0647 2.26042C48.5668 4.25001 50.0022 7.22292 50.0022 10.4167C50.0022 13.7208 48.4189 16.7938 45.7647 18.75H33.4168C30.0606 16.2813 28.496 12.1146 29.448 7.97084ZM35.4168 22.9167V27.0833H43.7522L43.7481 22.9167H35.4168ZM31.2501 31.25V24.2625C31.2501 23.1208 30.7814 22.0271 29.9439 21.25C26.1126 17.6917 24.2022 12.1896 25.3856 7.03959C25.996 4.38959 27.3501 2.01042 29.2106 0.133339C26.0397 -0.158328 22.9189 0.160422 19.9251 1.14584C15.4564 2.62084 11.5918 5.40834 8.79596 9.14376C6.28763 12.2438 3.97096 17.5604 1.51471 23.1875C1.06888 24.2104 -0.00195312 26.6417 -0.00195312 26.6417V31.25H4.85221L5.78763 38.3208C6.19805 41.4292 8.84805 43.75 11.9835 43.75H16.6647V50H43.7481V40.1896C43.7481 39.1854 44.1418 38.2375 44.7814 37.4604C46.3376 35.5708 47.5418 33.4708 48.4126 31.25H31.2501Z" fill="#4F4F4F"/>
</svg>
