<svg width="105" height="69" viewBox="0 0 105 69" fill="none" xmlns="http://www.w3.org/2000/svg">
<g opacity="0.28" clip-path="url(#clip0_19_957)">
<path d="M49.9643 24.0215L40.5275 44.517" stroke="#FEE8BB" stroke-width="10.2502" stroke-linecap="round"/>
<path d="M40.7057 45.0579L25.9624 38.5227" stroke="#FEE8BB" stroke-width="10.2502" stroke-linecap="round"/>
<path d="M27.0437 38.1665L19.4204 55.0668" stroke="#FEE8BB" stroke-width="10.2502" stroke-linecap="round"/>
<path d="M90.1154 25.7848L74.3096 14.2036" stroke="#FEE8BB" stroke-width="10.2502" stroke-linecap="round"/>
<path d="M74.6671 15.2852L66.5029 32.3637L49.7871 23.4805" stroke="#FEE8BB" stroke-width="10.2502" stroke-linecap="round"/>
<path d="M13.9241 53.3352C12.6451 58.5529 17.6695 62.8935 22.7278 58.2295L29.2509 45.2889L36.9821 48.7378C38.8995 49.705 43.0614 50.8123 44.3697 47.5035C45.678 44.1947 51.993 30.6031 51.993 30.6031L63.3129 37.6664C65.6481 39.2954 69.8936 40.8395 71.9668 34.8158L76.873 22.4078L88.5492 30.5528C91.6099 30.7438 97.0529 29.4305 94.3398 22.6499M15.7351 49.7409L17.9113 45.4267M94.3457 22.6479L77.1018 10.3413C75.4241 9.495 71.5608 8.80899 69.5296 12.8356L64.2608 25.9626L52.7627 18.3585C50.9047 17.5716 46.6808 17.0043 44.6496 21.0309C42.6185 25.0574 39.0817 33.8568 37.5672 37.7531L29.117 33.9414C27.3184 33.3348 23.394 32.9487 22.0857 36.2575C20.7774 39.5663 19.9667 41.3522 19.7249 41.8316" stroke="#DFA424" stroke-width="2.27783" stroke-linecap="round"/>
</g>
<defs>
<clipPath id="clip0_19_957">
<rect width="96.8076" height="40.7032" fill="white" transform="translate(0 30.287) rotate(-18.2316)"/>
</clipPath>
</defs>
</svg>
