<svg width="86" height="59" viewBox="0 0 86 59" fill="none" xmlns="http://www.w3.org/2000/svg">
<g opacity="0.28" clip-path="url(#clip0_19_965)">
<path d="M39.2045 37.067L55.6385 28.6136" stroke="#FEE8BB" stroke-width="8.3954" stroke-linecap="round"/>
<path d="M55.7961 28.1747L62.0049 39.8331" stroke="#FEE8BB" stroke-width="8.3954" stroke-linecap="round"/>
<path d="M61.1278 39.5168L74.5771 32.4662" stroke="#FEE8BB" stroke-width="8.3954" stroke-linecap="round"/>
<path d="M14.2 15.658L18.5464 31.1072" stroke="#FEE8BB" stroke-width="8.3954" stroke-linecap="round"/>
<path d="M18.862 30.2292L32.75 23.3369L39.0454 37.5055" stroke="#FEE8BB" stroke-width="8.3954" stroke-linecap="round"/>
<path d="M77.2474 36.3581C80.7065 33.6388 79.6577 28.3028 74.0407 28.7568L63.3003 33.8091L60.0556 27.6814C59.3073 26.0895 57.1823 23.2742 54.6679 24.7475C52.1536 26.2209 41.2187 31.7981 41.2187 31.7981L37.4844 21.5275C36.8008 19.2979 34.8424 16.1586 30.4641 18.9967L21.0353 24.5218L17.6174 13.3738C15.7399 11.7053 11.5665 9.80417 9.89282 15.547M74.2647 37.7618L70.683 39.4454M9.88799 15.5452L14.7955 32.1882C15.4503 33.5811 17.5954 35.9741 20.9383 34.4027L30.964 28.597L34.5402 39.3063C35.3411 40.7519 37.7788 43.2503 41.1217 41.679C44.4646 40.1077 51.1882 36.2185 54.1322 34.4703L57.6574 41.1949C58.5111 42.4942 60.8471 44.7246 63.3614 43.2512C65.8758 41.7778 67.3003 41.0354 67.6983 40.8483" stroke="#DFA424" stroke-width="1.86564" stroke-linecap="round"/>
</g>
<defs>
<clipPath id="clip0_19_965">
<rect width="79.2899" height="33.3378" fill="white" transform="translate(74.5908 58.2525) rotate(-160.175)"/>
</clipPath>
</defs>
</svg>
