<svg width="50" height="50" viewBox="0 0 50 50" fill="none" xmlns="http://www.w3.org/2000/svg">
<g clip-path="url(#clip0_648_132)">
<path d="M30.2088 26.0419C30.2088 28.919 27.8776 31.2502 25.0005 31.2502C22.1234 31.2502 19.7922 28.919 19.7922 26.0419C19.7922 23.1648 22.1234 20.8336 25.0005 20.8336C27.8776 20.8336 30.2088 23.1648 30.2088 26.0419ZM45.1692 23.8065L39.7442 31.5586C38.9651 32.6711 37.6901 33.3356 36.3317 33.3356H13.6713C12.313 33.3356 11.0359 32.6731 10.2588 31.5586L4.83382 23.8065C4.17548 22.8648 2.87548 22.6356 1.93173 23.294C0.987985 23.9523 0.760901 25.2523 1.41923 26.1961L6.84424 33.9481C8.40257 36.1731 10.9547 37.5023 13.6713 37.5023H16.6672V47.919C16.6672 49.0711 17.6005 50.0023 18.7505 50.0023C19.9005 50.0023 20.8338 49.0711 20.8338 47.919V37.5023H29.1672V47.919C29.1672 49.0711 30.1005 50.0023 31.2505 50.0023C32.4005 50.0023 33.3338 49.0711 33.3338 47.919V37.5023H36.3297C39.0463 37.5023 41.5984 36.1731 43.1567 33.9481L48.5817 26.1961C49.2401 25.2544 49.013 23.9544 48.0692 23.294C47.1276 22.6377 45.8317 22.8648 45.1692 23.8065ZM18.7505 10.4169H22.9172V12.394C22.9172 13.469 24.2151 14.0065 24.9755 13.2461L28.6567 9.56481C29.338 8.88356 29.338 7.78147 28.6567 7.10022L24.9755 3.41897C24.2151 2.65856 22.9172 3.19814 22.9172 4.27106V6.24814H18.7505C17.6005 6.24814 16.6672 7.17939 16.6672 8.33147C16.6672 9.48356 17.6005 10.4169 18.7505 10.4169ZM0.190068 5.60231C0.781735 2.97314 2.94215 0.802308 5.5609 0.198141C7.8359 -0.320609 10.0609 0.175224 11.8317 1.58564C13.5797 2.98147 14.5817 5.06064 14.5817 7.29189C14.5817 9.45856 13.6172 11.5002 11.9338 12.8877C10.9692 13.6836 10.4151 14.7669 10.4151 15.8669V16.669C10.4151 17.8211 9.48174 18.7523 8.33174 18.7523H6.2484C5.0984 18.7523 4.16507 17.8211 4.16507 16.669V15.8648C4.16507 14.7648 3.61507 13.6836 2.65882 12.8981C0.485902 11.1086 -0.434932 8.38147 0.190068 5.60231ZM5.30465 9.67522C6.1234 10.3461 6.79424 11.1398 7.29424 12.0127C7.79424 11.1419 8.46507 10.3461 9.28382 9.67106C10.0047 9.07731 10.4172 8.21064 10.4172 7.28981C10.4172 6.33356 9.9859 5.43981 9.2359 4.84189C8.67132 4.39189 8.01507 4.16272 7.30049 4.16272C7.03799 4.16272 6.76715 4.19606 6.49215 4.25856C5.42132 4.50439 4.50048 5.43356 4.25673 6.51689C3.97965 7.74814 4.3609 8.89814 5.30465 9.67522ZM48.7026 14.1315C48.3151 14.7919 47.6192 15.1586 46.9047 15.1586C46.5463 15.1586 46.1817 15.0669 45.8505 14.8711L45.5651 14.7023C44.7588 15.4502 43.7859 16.0002 42.7067 16.3252V16.6648C42.7067 17.8169 41.7734 18.7481 40.6234 18.7481C39.4734 18.7481 38.5401 17.8169 38.5401 16.6648V16.3252C37.463 16.0002 36.488 15.4502 35.6817 14.7023L35.3963 14.8711C35.0651 15.0669 34.7026 15.1586 34.3422 15.1586C33.6276 15.1586 32.9317 14.7919 32.5442 14.1315C31.9609 13.1398 32.2922 11.8627 33.2838 11.2794L33.563 11.1148C33.4255 10.5544 33.3297 9.97731 33.3297 9.37522C33.3297 8.77314 33.4234 8.19606 33.563 7.63564L33.2838 7.47106C32.2922 6.88772 31.9609 5.60856 32.5442 4.61897C33.1276 3.62314 34.4047 3.29397 35.3963 3.87939L35.6817 4.04814C36.488 3.30022 37.4609 2.75022 38.5401 2.42522V2.08564C38.5401 0.933558 39.4734 0.00230785 40.6234 0.00230785C41.7734 0.00230785 42.7067 0.933558 42.7067 2.08564V2.42522C43.7838 2.75022 44.7588 3.30022 45.5651 4.04814L45.8505 3.87939C46.8422 3.29814 48.1192 3.62522 48.7026 4.61897C49.2859 5.61064 48.9547 6.88772 47.963 7.47106L47.6838 7.63564C47.8213 8.19606 47.9172 8.77314 47.9172 9.37522C47.9172 9.97731 47.8234 10.5544 47.6838 11.1148L47.963 11.2794C48.9547 11.8627 49.2859 13.1419 48.7026 14.1315ZM43.7505 9.37522C43.7505 7.65231 42.3484 6.25022 40.6255 6.25022C38.9026 6.25022 37.5005 7.65231 37.5005 9.37522C37.5005 11.0981 38.9026 12.5002 40.6255 12.5002C42.3484 12.5002 43.7505 11.0981 43.7505 9.37522Z" fill="#4F4F4F"/>
</g>
<defs>
<clipPath id="clip0_648_132">
<rect width="50" height="50" fill="white"/>
</clipPath>
</defs>
</svg>
